<svg width="24" height="24" viewBox="0 0 24 24" fill="none" xmlns="http://www.w3.org/2000/svg">
<path d="M21.7171 21.1382H21.7172V17.2221C21.7172 16.9717 21.5128 16.7682 21.2633 16.7682C19.7704 16.7682 18.3051 16.5345 16.9074 16.0729L16.9073 16.0729C16.7458 16.0194 16.5668 16.0611 16.4449 16.1811L16.4392 16.1868L16.4327 16.1916L13.582 18.3523C13.3668 18.5154 13.0754 18.5412 12.8365 18.4169C9.41634 16.6648 7.31194 14.5593 5.58287 11.163L21.7171 21.1382ZM21.7171 21.1382V21.2632M21.7171 21.1382V21.2632M21.7171 21.2632C21.7171 21.5135 21.5127 21.7171 21.2632 21.7171C10.7976 21.7171 2.28288 13.2024 2.28288 2.73684C2.28288 2.48646 2.48728 2.28288 2.73684 2.28288H6.7895C7.03906 2.28288 7.24346 2.48646 7.24346 2.73684C7.24346 4.22819 7.47699 5.69305 7.93486 7.0823C7.98547 7.24674 7.95112 7.42402 7.76475 7.6175L7.75955 7.6229M21.7171 21.2632L7.75955 7.6229M7.75955 7.6229L7.75503 7.62888M7.75955 7.6229L7.75503 7.62888M7.75503 7.62888L5.64764 10.4194L5.64746 10.4196M7.75503 7.62888L5.64746 10.4196M5.64746 10.4196C5.48581 10.6347 5.46025 10.9232 5.58275 11.1628L5.64746 10.4196ZM9.27672 6.65146L9.27673 6.65146L9.27612 6.64959C8.8623 5.39562 8.65134 4.07843 8.65134 2.73684C8.65134 1.71021 7.81613 0.875 6.7895 0.875H2.73684C1.71021 0.875 0.875 1.71021 0.875 2.73684C0.875 13.9784 10.0216 23.125 21.2632 23.125C22.2898 23.125 23.125 22.2898 23.125 21.2632V17.2221C23.125 16.1955 22.2898 15.3603 21.2632 15.3603C19.9194 15.3603 18.6037 15.1505 17.3559 14.7381C16.702 14.5131 15.9581 14.6821 15.5163 15.1258L13.0897 16.9584C10.3106 15.4618 8.51886 13.6711 7.04035 10.9104L8.82255 8.54234C9.31287 8.04624 9.48757 7.32593 9.27672 6.65146Z" fill="#3E3E3E" stroke="#3E3E3E" stroke-width="0.25"/>
</svg>
