<svg width="27" height="26" viewBox="0 0 27 26" fill="none" xmlns="http://www.w3.org/2000/svg">
<path d="M8.96998 8.01988L8.57991 8.07675L1.44611 9.11679L1.44557 9.11687C0.782243 9.21307 0.514348 10.0335 0.996868 10.5033L0.997081 10.5035L6.15822 15.5328L6.44077 15.8081L6.37396 16.1969L5.15335 23.3009C5.03938 23.967 5.74187 24.4683 6.3284 24.1573L6.33076 24.156L12.7126 20.8016L13.0616 20.6181L13.4105 20.8016L19.7923 24.156L19.7925 24.1561C20.3841 24.4672 21.0826 23.9627 20.9699 23.3014L8.96998 8.01988ZM8.96998 8.01988L9.14435 7.66634L12.3327 1.20179C12.3327 1.2017 12.3328 1.20162 12.3328 1.20153C12.63 0.600034 13.491 0.598665 13.7907 1.20241C13.7908 1.20257 13.7909 1.20273 13.791 1.20289L16.9788 7.66634L17.1531 8.01988L17.5432 8.07675L24.677 9.11679L24.6775 9.11687C25.3409 9.21307 25.6088 10.0335 25.1262 10.5033L25.126 10.5035L19.9649 15.5328L19.6823 15.8081L19.7491 16.1969L20.9698 23.3009L8.96998 8.01988Z" stroke="#C98860" stroke-width="1.5"/>
</svg>
