<svg width="22" height="22" viewBox="0 0 22 22" fill="none" xmlns="http://www.w3.org/2000/svg">
<path fill-rule="evenodd" clip-rule="evenodd" d="M4.40582 6.23934C4.40582 8.12329 5.2408 9.81223 6.56088 10.9563C5.33786 11.2674 4.22408 11.7205 3.27486 12.29C1.39071 13.4205 0 15.1216 0 17.1896C0 17.1896 0 17.1895 0 17.1896V20.3189C0 20.7985 0.255518 21.1955 0.448206 21.4172C0.561494 21.5476 0.705641 21.6796 0.878973 21.7854C1.04488 21.8866 1.29783 22 1.60967 22H19.6806C20.4147 22 20.768 21.4395 20.8881 21.1612C21.0171 20.8625 21.0522 20.5465 21.0522 20.3189V17.1896C21.0522 17.1896 21.0522 17.1896 21.0522 17.1896C21.0522 15.1216 19.6614 13.4205 17.7773 12.29C16.8755 11.7489 15.8252 11.313 14.6738 11.004C16.026 9.85945 16.8845 8.14965 16.8845 6.23934C16.8845 2.79345 14.0911 0 10.6452 0C7.19927 0 4.40582 2.79345 4.40582 6.23934ZM10.6452 2C8.30383 2 6.40582 3.89802 6.40582 6.23934C6.40582 8.5139 8.19712 10.3701 10.446 10.4741L10.5261 10.4739C10.6165 10.4739 10.7066 10.4746 10.7966 10.476C13.0678 10.3963 14.8845 8.52998 14.8845 6.23934C14.8845 3.89802 12.9865 2 10.6452 2ZM19.0522 17.1896C19.0522 16.0996 18.3114 14.9429 16.7483 14.005C15.264 13.1144 13.1751 12.5207 10.81 12.4766C10.7552 12.478 10.7003 12.4787 10.6452 12.4787C10.5665 12.4787 10.4881 12.4772 10.4102 12.4743C7.97606 12.4929 5.82317 13.0934 4.30385 14.005C2.74075 14.9429 2 16.0996 2 17.1896C2 17.1895 2 17.1896 2 17.1896V20H19.0522V17.1896C19.0522 17.1896 19.0522 17.1895 19.0522 17.1896Z" fill="#3E3E3E"/>
</svg>
