<svg width="27" height="27" viewBox="0 0 27 27" fill="none" xmlns="http://www.w3.org/2000/svg">
<path d="M8.23684 12.5C7.68456 12.5 7.23684 12.9477 7.23684 13.5C7.23684 14.0523 7.68456 14.5 8.23684 14.5H18.7632C19.3154 14.5 19.7632 14.0523 19.7632 13.5C19.7632 12.9477 19.3154 12.5 18.7632 12.5H8.23684Z" fill="#C98860"/>
<path fill-rule="evenodd" clip-rule="evenodd" d="M1.65789 0C0.743768 0 0 0.743768 0 1.65789V25.3421C0 26.2562 0.743768 27 1.65789 27H25.3421C26.2562 27 27 26.2562 27 25.3421V1.65789C27 0.743768 26.2562 0 25.3421 0H1.65789ZM2 25V2H25V25H2Z" fill="#C98860"/>
</svg>
